<svg width="146" height="30" viewBox="0 0 146 30" fill="none" xmlns="http://www.w3.org/2000/svg">
<path d="M23.656 22.532V3.488C23.656 3.152 23.812 2.984 24.124 2.984H30.28C31.624 2.984 32.92 3.128 34.168 3.416C35.416 3.704 36.544 4.208 37.552 4.928C38.56 5.648 39.352 6.632 39.928 7.88C40.528 9.128 40.828 10.712 40.828 12.632C40.828 16.184 39.856 18.8 37.912 20.48C35.968 22.16 33.352 23 30.064 23H24.124C23.812 23 23.656 22.844 23.656 22.532ZM28.48 18.5H30.46C32.14 18.5 33.448 18.02 34.384 17.06C35.32 16.1 35.788 14.672 35.788 12.776C35.788 10.784 35.308 9.404 34.348 8.636C33.388 7.868 32.032 7.484 30.28 7.484H28.48V18.5ZM52.3711 21.992C51.9391 22.376 51.4351 22.688 50.8591 22.928C50.3071 23.168 49.6591 23.288 48.9151 23.288C47.5231 23.288 46.3471 22.964 45.3871 22.316C44.4511 21.644 43.7431 20.756 43.2631 19.652C42.7831 18.524 42.5431 17.288 42.5431 15.944C42.5431 14.576 42.7951 13.352 43.2991 12.272C43.8271 11.168 44.5711 10.304 45.5311 9.68C46.5151 9.032 47.6671 8.708 48.9871 8.708C50.7631 8.708 52.1431 9.236 53.1271 10.292C53.3911 9.86 53.7751 9.56 54.2791 9.392C54.7831 9.2 55.3831 9.104 56.0791 9.104H56.6911C57.0031 9.104 57.1591 9.26 57.1591 9.572V22.532C57.1591 22.844 57.0031 23 56.6911 23H52.8391C52.5271 23 52.3711 22.844 52.3711 22.532V21.992ZM49.9951 18.896C50.2591 18.896 50.5711 18.836 50.9311 18.716C51.3151 18.572 51.6511 18.296 51.9391 17.888C52.2271 17.456 52.3711 16.82 52.3711 15.98C52.3711 15.14 52.2271 14.528 51.9391 14.144C51.6511 13.76 51.3151 13.508 50.9311 13.388C50.5711 13.268 50.2591 13.208 49.9951 13.208C49.7551 13.208 49.4311 13.268 49.0231 13.388C48.6151 13.508 48.2551 13.76 47.9431 14.144C47.6311 14.528 47.4751 15.14 47.4751 15.98C47.4751 16.82 47.6311 17.456 47.9431 17.888C48.2551 18.296 48.6031 18.572 48.9871 18.716C49.3951 18.836 49.7311 18.896 49.9951 18.896ZM61.0063 13.316H58.7383C58.4263 13.316 58.2703 13.16 58.2703 12.848V9.572C58.2703 9.26 58.4263 9.104 58.7383 9.104H61.0063V4.784C61.0063 4.496 61.1503 4.352 61.4383 4.352H62.2663C63.3943 4.352 64.2583 4.616 64.8583 5.144C65.4583 5.648 65.7583 6.536 65.7583 7.808V9.104H68.5663C68.8543 9.104 68.9983 9.26 68.9983 9.572V12.848C68.9983 13.16 68.8543 13.316 68.5663 13.316H65.7583V22.532C65.7583 22.844 65.5903 23 65.2543 23H61.4383C61.1503 23 61.0063 22.844 61.0063 22.532V13.316ZM79.5651 21.992C79.1331 22.376 78.6291 22.688 78.0531 22.928C77.5011 23.168 76.8531 23.288 76.1091 23.288C74.7171 23.288 73.5411 22.964 72.5811 22.316C71.6451 21.644 70.9371 20.756 70.4571 19.652C69.9771 18.524 69.7371 17.288 69.7371 15.944C69.7371 14.576 69.9891 13.352 70.4931 12.272C71.0211 11.168 71.7651 10.304 72.7251 9.68C73.7091 9.032 74.8611 8.708 76.1811 8.708C77.9571 8.708 79.3371 9.236 80.3211 10.292C80.5851 9.86 80.9691 9.56 81.4731 9.392C81.9771 9.2 82.5771 9.104 83.2731 9.104H83.8851C84.1971 9.104 84.3531 9.26 84.3531 9.572V22.532C84.3531 22.844 84.1971 23 83.8851 23H80.0331C79.7211 23 79.5651 22.844 79.5651 22.532V21.992ZM77.1891 18.896C77.4531 18.896 77.7651 18.836 78.1251 18.716C78.5091 18.572 78.8451 18.296 79.1331 17.888C79.4211 17.456 79.5651 16.82 79.5651 15.98C79.5651 15.14 79.4211 14.528 79.1331 14.144C78.8451 13.76 78.5091 13.508 78.1251 13.388C77.7651 13.268 77.4531 13.208 77.1891 13.208C76.9491 13.208 76.6251 13.268 76.2171 13.388C75.8091 13.508 75.4491 13.76 75.1371 14.144C74.8251 14.528 74.6691 15.14 74.6691 15.98C74.6691 16.82 74.8251 17.456 75.1371 17.888C75.4491 18.296 75.7971 18.572 76.1811 18.716C76.5891 18.836 76.9251 18.896 77.1891 18.896ZM92.7003 17.672L95.1123 9.572C95.1843 9.26 95.3643 9.104 95.6523 9.104H99.6123C99.9243 9.104 100.032 9.26 99.9363 9.572L95.4723 22.532C95.3763 22.844 95.1843 23 94.8963 23H90.4323C90.0963 23 89.8803 22.844 89.7843 22.532L85.3923 9.572C85.2723 9.26 85.3563 9.104 85.6443 9.104H87.0123C87.8523 9.104 88.5243 9.2 89.0283 9.392C89.5563 9.584 89.9883 9.944 90.3243 10.472C90.6603 10.976 90.9603 11.696 91.2243 12.632L92.7003 17.672ZM100.555 5.576C100.555 4.88 100.807 4.28 101.311 3.776C101.815 3.248 102.427 2.984 103.147 2.984C103.867 2.984 104.467 3.248 104.947 3.776C105.451 4.28 105.703 4.88 105.703 5.576C105.703 6.296 105.451 6.908 104.947 7.412C104.467 7.916 103.867 8.168 103.147 8.168C102.427 8.168 101.815 7.916 101.311 7.412C100.807 6.908 100.555 6.296 100.555 5.576ZM100.843 22.532V9.572C100.843 9.26 100.999 9.104 101.311 9.104H102.139C103.291 9.104 104.155 9.38 104.731 9.932C105.331 10.46 105.631 11.36 105.631 12.632V22.532C105.631 22.844 105.463 23 105.127 23H101.311C100.999 23 100.843 22.844 100.843 22.532ZM106.966 18.824C106.966 18.536 107.026 18.332 107.146 18.212C107.266 18.092 107.386 18.032 107.506 18.032C107.602 18.032 107.698 18.068 107.794 18.14C107.914 18.188 108.058 18.272 108.226 18.392C108.562 18.608 109.03 18.86 109.63 19.148C110.23 19.412 111.01 19.544 111.97 19.544C112.45 19.544 112.798 19.472 113.014 19.328C113.23 19.16 113.338 18.98 113.338 18.788C113.338 18.524 113.134 18.308 112.726 18.14C112.342 17.948 111.85 17.768 111.25 17.6C110.674 17.408 110.086 17.156 109.486 16.844C108.886 16.508 108.382 16.064 107.974 15.512C107.59 14.936 107.398 14.192 107.398 13.28C107.398 12.2 107.662 11.324 108.19 10.652C108.718 9.98 109.39 9.488 110.206 9.176C111.046 8.864 111.898 8.708 112.762 8.708C113.458 8.708 114.106 8.768 114.706 8.888C115.306 9.008 115.798 9.14 116.182 9.284C116.878 9.596 117.346 9.98 117.586 10.436C117.826 10.868 117.814 11.504 117.55 12.344L117.298 13.172C117.226 13.364 117.118 13.46 116.974 13.46C116.878 13.46 116.794 13.448 116.722 13.424C116.65 13.376 116.566 13.34 116.47 13.316C115.294 12.812 114.19 12.56 113.158 12.56C112.798 12.56 112.546 12.62 112.402 12.74C112.282 12.86 112.222 12.992 112.222 13.136C112.222 13.424 112.414 13.664 112.798 13.856C113.206 14.024 113.698 14.204 114.274 14.396C114.874 14.588 115.474 14.84 116.074 15.152C116.674 15.464 117.166 15.884 117.55 16.412C117.958 16.94 118.162 17.636 118.162 18.5C118.162 19.916 117.67 21.08 116.686 21.992C115.702 22.904 114.394 23.36 112.762 23.36C111.682 23.36 110.698 23.156 109.81 22.748C108.946 22.316 108.25 21.752 107.722 21.056C107.218 20.36 106.966 19.616 106.966 18.824ZM123.707 23.288C122.459 23.288 121.439 22.892 120.647 22.1C119.879 21.284 119.495 20.036 119.495 18.356V3.488C119.495 3.152 119.651 2.984 119.963 2.984H120.791C121.919 2.984 122.771 3.26 123.347 3.812C123.947 4.34 124.247 5.24 124.247 6.512V17.816C124.247 18.416 124.343 18.812 124.535 19.004C124.751 19.196 125.039 19.292 125.399 19.292C125.663 19.292 125.915 19.232 126.155 19.112C126.395 18.992 126.623 18.848 126.839 18.68C126.887 18.632 126.947 18.596 127.019 18.572C127.115 18.524 127.211 18.5 127.307 18.5C127.475 18.5 127.583 18.584 127.631 18.752C127.703 18.92 127.739 19.064 127.739 19.184C127.739 19.808 127.607 20.444 127.343 21.092C127.079 21.716 126.647 22.244 126.047 22.676C125.471 23.084 124.691 23.288 123.707 23.288ZM131.88 23.18L126.876 9.572C126.828 9.452 126.828 9.344 126.876 9.248C126.948 9.152 127.032 9.104 127.128 9.104H128.604C129.444 9.104 130.104 9.212 130.584 9.428C131.088 9.62 131.508 9.98 131.844 10.508C132.18 11.012 132.504 11.72 132.816 12.632L134.4 17.168L136.956 9.572C137.1 9.26 137.292 9.104 137.532 9.104H141.348C141.492 9.104 141.576 9.152 141.6 9.248C141.648 9.344 141.66 9.452 141.636 9.572L136.74 23.324C136.308 24.5 135.852 25.52 135.372 26.384C134.916 27.272 134.34 27.956 133.644 28.436C132.948 28.916 132.024 29.156 130.872 29.156C129.96 29.156 129.18 28.952 128.532 28.544C127.908 28.136 127.428 27.62 127.092 26.996C126.78 26.396 126.624 25.772 126.624 25.124C126.624 24.932 126.672 24.752 126.768 24.584C126.84 24.416 126.984 24.332 127.2 24.332C127.32 24.332 127.428 24.368 127.524 24.44C128.22 24.896 128.856 25.124 129.432 25.124C130.056 25.124 130.548 24.956 130.908 24.62C131.292 24.284 131.616 23.804 131.88 23.18Z" fill="url(#paint0_linear_9_50)"/>
<path d="M18.6471 12.8957C18.6471 19.5807 13.1167 25 6.29459 25C-0.527501 25 0.44341 20.186 0.44341 13.5009C-0.856861 -13.7337 0.492361 8.65925 7.31446 8.65925C14.1366 8.65925 20.5975 -1.3813 18.6471 12.8957Z" fill="url(#paint1_linear_9_50)"/>
<defs>
<linearGradient id="paint0_linear_9_50" x1="22" y1="13.5" x2="146" y2="13.5" gradientUnits="userSpaceOnUse">
<stop stop-color="#5524E6"/>
<stop offset="0.456731" stop-color="#961C91"/>
<stop offset="0.685096" stop-color="#B61866"/>
<stop offset="0.799279" stop-color="#C71650"/>
<stop offset="0.85637" stop-color="#CF1546"/>
<stop offset="0.884916" stop-color="#D31540"/>
<stop offset="0.899189" stop-color="#D5143E"/>
<stop offset="0.906325" stop-color="#D6143C"/>
<stop offset="0.909893" stop-color="#D6143C"/>
<stop offset="0.913462" stop-color="#D7143B"/>
</linearGradient>
<linearGradient id="paint1_linear_9_50" x1="-6.98844" y1="12.8957" x2="17.7166" y2="12.8957" gradientUnits="userSpaceOnUse">
<stop stop-color="#4516A4"/>
<stop offset="1" stop-color="#D7143B"/>
</linearGradient>
</defs>
</svg>
